<svg xmlns="http://www.w3.org/2000/svg" xmlns:xlink="http://www.w3.org/1999/xlink" xmlns:fi="http://pattern.flaticon.com/" x="0" y="0" width="700" height="350" viewBox="0 0 700 350"><rect x="0px" y="0px" width="100%" height="100%" opacity="0" fill="#ffffff"/><defs><path d="M502.004,23.687c-10.608-7.891-25.481-6.061-33.862,4.163c-0.032,0.04-0.064,0.08-0.097,0.121    c-30.398,38.688-231.63,294.791-252.498,321.351c-1.933,2.459-4.835,3.87-7.964,3.87h-49.902c-4.143,0-7.5,3.358-7.5,7.5    c0,4.142,3.357,7.5,7.5,7.5h5.837v56.167H131.83c-2.319-6.034-8.995-9.844-14.985-12.193v-43.974h5.837c4.143,0,7.5-3.358,7.5-7.5    c0-4.142-3.357-7.5-7.5-7.5H78.604c-20.924,0-38.435,16.992-38.435,38.434c0,9.03-0.126,10.976,0.461,14.767    C21.882,408.81,0,414.699,0,429.02v39.884c0,23.623,59.549,24.305,66.339,24.305c6.79,0,66.339-0.682,66.339-24.305v-29.545    c11.277,0,88.626,0,98.771,0c8.128,0,15.734-3.995,20.348-10.688c3.354-4.867,98.722-143.228,112.354-163.007    c2.352-3.411,1.492-8.081-1.919-10.432c-3.407-2.351-8.08-1.492-10.431,1.919l-74.205,107.658l-9.675-57.865l120.922-153.895    l23.1,16.846l-40.228,58.364c-2.352,3.411-1.492,8.081,1.919,10.432c3.409,2.352,8.082,1.492,10.431-1.919L507.602,57.54    C515.188,46.535,512.729,31.665,502.004,23.687z M55.169,391.625c0-13.196,10.852-23.434,23.435-23.434h23.24v39.777    c-12.278-2.456-29.549-3.833-46.232-2.981C55.035,401.98,55.169,400.454,55.169,391.625z M66.339,419.714    c14.092,0,41.183,2.345,50.542,9.352c-4.805,3.773-23.183,9.258-50.542,9.258c-27.47,0-45.891-5.531-50.604-9.305    C24.43,422.057,52.227,419.714,66.339,419.714z M117.678,468.204c-3.134,3.745-22.115,10.004-51.339,10.004    S18.133,471.949,15,468.204v-22.666c24.928,10.282,77.783,10.269,102.678,0V468.204z M239.446,420.157    c-1.813,2.629-4.802,4.201-7.998,4.201h-52.931v-56.167h29.065c7.763,0,14.965-3.5,19.759-9.603l28.039-35.685l9.976,59.662    C254.315,398.585,256.983,394.714,239.446,420.157z M420.458,157.54l-22.342-16.293l12.338-15.703    c20.792,15.164,17.499,12.761,21.334,15.559L420.458,157.54z M440.304,128.748l-20.576-15.006l12.338-15.702l19.568,14.271    L440.304,128.748z M495.252,49.027l-35.104,50.93l-18.81-13.719l38.447-48.93c3.301-3.974,9.115-4.674,13.266-1.586    C497.267,38.857,498.233,44.702,495.252,49.027z" transform="matrix(0.13671875 0 0 0.13671875 315 315)" id="L1_64"/><g transform="matrix(0.09765644371509552 0 0 0.09765644371509552 133.0000003814705 296)" id="L1_65"><path d="M327.281,294.512h-32.924c-7.696,0-13.958,6.261-13.958,13.957v22.129c0,11.151,12.474,17.813,21.744,11.586    l32.924-22.129C346.484,312.383,341.034,294.512,327.281,294.512z M295.414,328.616v-19.088h28.4L295.414,328.616z"/><path d="M314.196,168.285c-4.147,0-7.508,3.36-7.508,7.508v33.139c0,4.147,3.36,7.508,7.508,7.508c4.147,0,7.508-3.36,7.508-7.508    v-33.139C321.704,171.646,318.343,168.285,314.196,168.285z"/><path d="M346.257,168.285c-4.147,0-7.508,3.36-7.508,7.508v33.139c0,4.147,3.36,7.508,7.508,7.508s7.508-3.36,7.508-7.508v-33.139    C353.765,171.646,350.405,168.285,346.257,168.285z"/><path d="M378.317,168.285c-4.147,0-7.508,3.36-7.508,7.508v33.139c0,4.147,3.36,7.508,7.508,7.508c4.147,0,7.508-3.36,7.508-7.508    v-33.139C385.824,171.646,382.464,168.285,378.317,168.285z"/><path d="M410.376,168.285c-4.147,0-7.508,3.36-7.508,7.508v33.139c0,4.147,3.36,7.508,7.508,7.508s7.508-3.36,7.508-7.508v-33.139    C417.883,171.646,414.523,168.285,410.376,168.285z"/><path d="M497.517,202.614c-4.147,0-7.508,3.36-7.508,7.508v14.658c0,4.456-3.626,8.082-8.081,8.082c-4.492,0-335.061,0-337.129,0    v-12.727c0-11.639-9.469-21.107-21.107-21.107H71.16v-38.599c0-4.456,3.626-8.082,8.082-8.082c15.994,0,378.419,0,402.684,0    c4.455,0,8.081,3.626,8.081,8.082v14.658c0,4.147,3.36,7.508,7.508,7.508c4.147,0,7.508-3.36,7.508-7.508v-14.658    c0.001-12.735-10.36-23.096-23.095-23.096h-6.043C452.214,56.872,380.948,6.399,295.565,0.171    c-4.118-0.294-7.732,2.807-8.033,6.943c-0.301,4.135,2.807,7.732,6.943,8.033c80.686,5.883,143.298,52.373,165.713,122.185    H318.839c0-26.323-12.97-48.236-28.063-57.849c-31.381-20.241-134.141,38.687-166.041,57.849H92.556    c2.84-45.666,31.452-85.272,74.513-102.194c29.522-11.603,60.919-18.376,93.322-20.135c4.141-0.225,7.315-3.764,7.09-7.904    c-0.225-4.14-3.767-7.291-7.904-7.09c-34.009,1.847-66.98,8.963-98,21.154c-47.636,18.721-81.127,63.646-84.041,116.238    c-11.942,0.876-21.393,10.866-21.393,23.028v41.141l-35.21,14.972c-2.772,1.179-4.57,3.899-4.57,6.909v55.597l-3.472,0.754    c-4.052,0.879-6.624,4.877-5.744,8.929c0.827,3.814,4.54,6.696,9.216,5.682v46.297l-4.407,1.576    c-3.904,1.396-5.938,5.694-4.542,9.598c1.393,3.894,5.68,5.939,9.598,4.542l5.451-1.949l42.683,51.109l-1.599,1.103    c-3.411,2.356-4.269,7.031-1.914,10.445c2.356,3.411,7.03,4.269,10.445,1.914l2.734-1.887l39.966,47.856    c1.426,1.708,3.538,2.695,5.763,2.695h32.756c3.128,0,5.928-1.94,7.028-4.867c2.367-6.299,43.962-117.005,45.65-121.498    c1.182,0.093,0.33,0.07,11.168,0.07v63.187c0,59.219,48.178,107.397,107.398,107.397c59.219,0,107.397-48.178,107.397-107.397    v-63.187h10.036c9.775,0,18.406-6.584,20.99-16.009l21.294-77.647c11.645-1.173,20.765-11.031,20.765-22.98v-14.658    C505.024,205.974,501.664,202.614,497.517,202.614z M283.24,92.523h0.001c18.298,14.513,20.694,34.691,20.608,44.809h-33.161    c-0.114-10.735-2.558-29.485-16.317-44.46C261.657,91.036,277.341,87.853,283.24,92.523z M234.802,99.033    c2.83,0.005,4.939,0.51,5.99,1.478c12.555,11.542,14.708,27.89,14.852,36.821H154.751    C178.982,123.804,208.981,108.486,234.802,99.033z M141.888,247.876c1.103,0.45,3.058,1.319,5.572,2.72l-7.132,1.548v-4.267    H141.888z M140.326,267.509l22.919-4.974c5.178,5.108,10.475,11.759,14.941,20.315l-37.86,13.537V267.509z M184.002,296.718    c2.259,6.9,3.953,14.704,4.824,23.5l-21.14,14.592l-22.337-24.27L184.002,296.718z M155.207,343.423l-33.089,22.839    l-31.447-36.173l39.323-14.059L155.207,343.423z M86.75,279.136l38.561-8.368v30.988L86.75,315.543V279.136z M86.749,263.772    v-15.896h38.561v7.527L86.749,263.772z M71.16,214.042h52.531c3.358,0,6.092,2.733,6.092,6.092v12.727H79.242    c-4.456,0-8.082-3.626-8.082-8.082V214.042z M31.38,228.418l24.765-10.532v6.894c0,10.108,6.529,18.715,15.59,21.838v20.415    l-40.355,8.759V228.418z M31.38,291.154l40.355-8.759v38.516L31.38,335.339V291.154z M37.528,349.089l37.966-13.575l34.189,39.33    l-32.128,22.175L37.528,349.089z M148.096,452.696h-24.045l-36.83-44.101l32.376-22.346l37.331,42.943L148.096,452.696z     M162.931,413.212l-30.901-35.546l33.446-23.085l13.837,15.034L162.931,413.212z M185.228,353.87l-7.273-7.902l13.828-9.545    L185.228,353.87z M416.921,404.603c0,50.94-41.442,92.382-92.382,92.382c-50.94,0-92.383-41.442-92.383-92.382v-63.187h9.397    c1.832,0,3.6-0.266,5.287-0.726c1.198,19.36,17.322,34.746,36.979,34.746h14.779c6.089,0,11.963-1.819,16.987-5.26l54.737-37.5    c3.701,5.276,9.817,8.74,16.736,8.74h29.862V404.603z M261.777,338.378V310.32c0-19.068,15.513-34.581,34.581-34.581h35.678    c19.068,0,34.581,15.513,34.581,34.581v6.694L307.1,357.789c-2.513,1.723-5.452,2.633-8.5,2.633h-14.779    C271.666,360.422,261.777,350.534,261.777,338.378z M468.655,247.876l-20.173,73.559c-0.801,2.924-3.477,4.965-6.509,4.965H387.06    c-2.993,0-5.428-2.436-5.428-5.43v-0.038c0-0.01,0-0.021,0-0.031v-10.583c0-27.347-22.249-49.596-49.596-49.596h-35.678    c-27.346,0-49.596,22.249-49.596,49.596v10.872c0,2.872-2.336,5.208-5.208,5.208h-34.133c-1.713,0-3.148-1.311-3.258-2.973    c-1.92-28.928-12.548-56.417-34.632-75.552h299.125V247.876z"/></g><g transform="matrix(0.09765605628490448 0 0 0.09765605628490448 62.5 150)" id="L1_66"><path d="M112.502,88.342c-2.465,0-4.437,0.789-5.027,2.859L93.77,141.78L79.967,91.202c-0.592-2.07-2.563-2.859-5.028-2.859    c-4.239,0-9.859,2.662-9.859,6.31c0,0.295,0.099,0.69,0.197,1.084l18.437,60.142c1.084,3.451,5.521,5.126,10.057,5.126    s8.973-1.676,10.057-5.126l18.339-60.142c0.099-0.395,0.197-0.789,0.197-1.084C122.361,91.005,116.741,88.342,112.502,88.342z"/><path d="M135.769,88.342c-3.845,0-7.69,1.38-7.69,4.633v62.705c0,3.155,3.846,4.732,7.69,4.732s7.689-1.577,7.689-4.732V92.977    C143.459,89.722,139.613,88.342,135.769,88.342z"/><path d="M167.81,106.681c0-3.056,2.859-5.915,9.859-5.915c8.084,0,9.959,3.746,13.508,3.746c4.338,0,6.112-5.422,6.112-8.085    c0-7.69-14.395-8.677-19.62-8.677c-12.324,0-25.24,5.62-25.24,20.409c0,23.07,31.254,21,31.254,32.93    c0,4.732-5.027,6.507-9.564,6.507c-9.17,0-12.127-7.295-16.761-7.295c-3.746,0-6.704,4.929-6.704,8.281    c0,6.507,10.846,12.817,23.761,12.817c14.296,0,24.647-7.69,24.647-21.887C199.064,114.667,167.81,116.54,167.81,106.681z"/><path d="M214.345,88.342c-3.845,0-7.69,1.38-7.69,4.633v62.705c0,3.155,3.846,4.732,7.69,4.732s7.689-1.577,7.689-4.732V92.977    C222.034,89.722,218.19,88.342,214.345,88.342z"/><path d="M275.373,88.342H232.78c-3.253,0-4.633,3.549-4.633,6.802c0,3.746,1.676,7,4.633,7h13.606v53.536    c0,3.155,3.845,4.732,7.689,4.732s7.69-1.577,7.69-4.732v-53.536h13.605c2.958,0,4.634-3.253,4.634-7    C280.007,91.892,278.627,88.342,275.373,88.342z"/><path d="M308.402,88.342c-13.605,0-24.154,6.31-24.154,23.267v26.128c0,16.958,10.55,23.267,24.154,23.267    c13.606,0,24.254-6.31,24.254-23.267V111.61C332.656,94.653,322.008,88.342,308.402,88.342z M317.275,137.737    c0,6.802-3.352,9.859-8.874,9.859c-5.521,0-8.773-3.056-8.773-9.859V111.61c0-6.802,3.253-9.859,8.773-9.859    c5.521,0,8.874,3.056,8.874,9.859V137.737z"/><path d="M392.008,151.246l-12.029-21.79c6.9-2.662,11.93-8.971,11.93-20.014c0-16.07-10.747-21.098-24.253-21.098h-20.409    c-2.858,0-4.732,2.168-4.732,4.633v62.705c0,3.155,3.846,4.732,7.69,4.732c3.844,0,7.69-1.577,7.69-4.732v-23.76h6.507    l13.508,26.226c1.084,2.07,2.957,2.859,4.929,2.859c4.535,0,9.663-4.141,9.663-7.985    C392.501,152.527,392.402,151.837,392.008,151.246z M367.655,120.089h-9.762v-18.338h9.762c5.521,0,8.873,2.268,8.873,9.169    C376.528,117.82,373.176,120.089,367.655,120.089z"/><path d="M413.796,106.681c0-3.056,2.859-5.915,9.859-5.915c8.084,0,9.959,3.746,13.508,3.746c4.338,0,6.112-5.422,6.112-8.085    c0-7.69-14.395-8.677-19.62-8.677c-12.324,0-25.24,5.62-25.24,20.409c0,23.07,31.254,21,31.254,32.93    c0,4.732-5.027,6.507-9.564,6.507c-9.17,0-12.127-7.295-16.761-7.295c-3.746,0-6.704,4.929-6.704,8.281    c0,6.507,10.846,12.817,23.761,12.817c14.296,0,24.647-7.69,24.647-21.887C445.05,114.667,413.796,116.54,413.796,106.681z"/><path d="M504.5,132.449c-4.143,0-7.5,3.358-7.5,7.5v57.116c0,9.146-7.439,16.586-16.585,16.586c-13.508,0-442.436,0-448.827,0    c-9.146,0-16.586-7.44-16.586-16.586V47.831c0-9.146,7.44-16.586,16.586-16.586h206.912c4.143,0,7.5-3.358,7.5-7.5    s-3.357-7.5-7.5-7.5H31.587C14.17,16.244,0,30.414,0,47.831v149.235c0,17.417,14.17,31.587,31.587,31.587h202.365v134.474    c-7.544,2.144-13.094,9.081-13.094,17.304v67.542h-26.444c-7.398,0-13.418,6.019-13.418,13.418v20.948    c0,7.398,6.019,13.418,13.418,13.418h123.172c7.398,0,13.418-6.019,13.418-13.418v-20.948c0-7.398-6.019-13.418-13.418-13.418    h-26.444v-67.542c0-8.222-5.548-15.16-13.094-17.304V228.653h202.365c17.416,0,31.586-14.17,31.586-31.587v-57.117    C512,135.807,508.642,132.449,504.5,132.449z M248.953,228.653h14.096V362.43h-14.096V228.653z M235.859,380.431    c0-1.654,1.346-3,3-3c12.813,0,22.017,0,34.282,0c1.654,0,3,1.346,3,3v67.542h-40.282V380.431z M316.003,462.974v17.781H195.997    v-17.781C197.977,462.974,314.045,462.974,316.003,462.974z"/><path d="M475.404,45.341H36.597c-4.143,0-7.5,3.358-7.5,7.5v139.214c0,4.142,3.357,7.5,7.5,7.5h438.807c4.143,0,7.5-3.358,7.5-7.5    V52.841C482.904,48.699,479.547,45.341,475.404,45.341z M467.903,184.555H44.098V60.342h423.806V184.555z"/><path d="M480.414,16.244H273.502c-4.143,0-7.5,3.358-7.5,7.5s3.357,7.5,7.5,7.5h206.913c9.146,0,16.585,7.44,16.585,16.586v57.116    c0,4.142,3.357,7.5,7.5,7.5c4.143,0,7.5-3.358,7.5-7.5V47.831C512,30.414,497.83,16.244,480.414,16.244z"/></g><g transform="matrix(0.09765605628490448 0 0 0.09765605628490448 219.5 196.00000114440695)" id="L1_67"><path d="M331.999,66.875c-4.143,0-7.5,3.358-7.5,7.5v37.368c0,4.142,3.357,7.5,7.5,7.5c4.143,0,7.5-3.358,7.5-7.5V74.375    C339.499,70.233,336.142,66.875,331.999,66.875z"/><path d="M302.213,114.222l-18.684-32.361c-2.071-3.588-6.66-4.817-10.245-2.745c-3.587,2.071-4.816,6.658-2.745,10.245    l18.684,32.361c2.071,3.589,6.661,4.815,10.245,2.745C303.055,122.396,304.284,117.809,302.213,114.222z"/><path d="M390.716,79.116c-3.589-2.073-8.176-0.842-10.245,2.745l-18.684,32.361c-2.071,3.587-0.842,8.174,2.745,10.245    c3.592,2.073,8.177,0.838,10.245-2.745l18.684-32.361C395.532,85.774,394.303,81.187,390.716,79.116z"/><path d="M224.229,231.864c-14.967-17.522-35.664-29.261-58.275-33.055c-4.089-0.688-7.952,2.07-8.638,6.155    s2.07,7.952,6.155,8.638c40.119,6.732,69.237,41.192,69.237,81.938c0,45.819-37.276,83.096-83.096,83.096    c-45.818,0-83.096-37.276-83.096-83.096c0-38.559,27.267-72.657,64.835-81.078c4.042-0.906,6.584-4.917,5.678-8.959    c-0.906-4.042-4.914-6.585-8.959-5.678c-21.396,4.796-40.824,16.87-54.706,33.997c-51.712,63.803-6.191,159.814,76.248,159.814    C233.224,393.636,278.354,295.218,224.229,231.864z"/><path d="M504.501,199.008c4.143,0,7.5-3.358,7.5-7.5v-40.658c-0.001-12.761-10.383-23.143-23.144-23.143h-18.249    c-11.082,0-20.365,7.831-22.617,18.25c-37.737,0-264.364,0-296.678,0c-26.278,0-51.036,6.699-72.62,18.45    c0.011-0.372,0.028-0.742,0.028-1.116c0-19.927-16.212-36.138-36.139-36.138S6.444,143.363,6.444,163.291    c0,17.705,12.801,32.466,29.631,35.54c-51.002,59.287-47.335,146.854,7.256,201.971c28.111,28.382,65.585,44.123,105.521,44.322    c0.255,0.001,0.501,0.002,0.756,0.002c90.998-0.006,162.023-81.554,147.8-172.743c-0.007-0.043-0.013-0.084,0.037-0.142    c0.043-0.05,0.071-0.05,0.113-0.05h151.31c3.245,8.865,11.766,15.208,21.741,15.208h18.249c12.761,0,23.143-10.381,23.143-23.142    v-37.749c0-4.142-3.357-7.5-7.5-7.5c-4.143,0-7.5,3.358-7.5,7.5v37.749c0,4.49-3.652,8.142-8.143,8.142h-18.249    c-4.49,0-8.143-3.652-8.143-8.142V150.849c0-4.49,3.652-8.143,8.143-8.143h18.249c4.49,0,8.143,3.653,8.143,8.143v40.658    C497.001,195.65,500.358,199.008,504.501,199.008z M364.04,160.957v20.091c0,0.04-0.064,0.104-0.104,0.104h-63.872    c-0.04,0-0.104-0.064-0.104-0.104v-20.091H364.04z M21.444,163.291c0-11.656,9.482-21.138,21.138-21.138    s21.139,9.482,21.139,21.138c0,6.262-2.752,11.879-7.093,15.753c-0.571,0.455-1.142,0.911-1.706,1.374    c-3.477,2.512-7.732,4.011-12.34,4.011C30.927,184.429,21.444,174.946,21.444,163.291z M447.466,257.19H297.558    c-4.432,0-8.626,1.93-11.507,5.294c-2.886,3.37-4.148,7.819-3.464,12.208c12.774,81.912-50.947,155.433-132.98,155.433    c-0.225,0-0.455,0-0.681-0.002c-35.928-0.179-69.644-14.342-94.938-39.878c-55.114-55.646-51.717-146.714,9.88-197.776    c0.944-0.691,1.854-1.426,2.726-2.203c23.298-18.331,52.76-29.311,84.719-29.311H284.96v20.091    c0,8.328,6.775,15.104,15.104,15.104h63.872c8.329,0,15.104-6.775,15.104-15.104v-20.091h68.425V257.19z"/></g><g transform="matrix(0.07787503073385584 0.05309661126918982 -0.05309661126918982 0.07787503073385584 197.64094987111494 60.50069935712088)" id="L1_68"><path d="M450.639,155.653c-37.104-12.971-86.283-20.114-138.48-20.114c-105.678,0-199.839,29.733-199.839,74.742v91.719    c0,45.112,91.61,71.604,182.102,74.458c4.115,0.147,7.603-3.12,7.732-7.26c0.131-4.14-3.119-7.602-7.26-7.732    c-99.291-3.132-167.573-32.338-167.573-59.465v-62.331c68.545,63.017,306.956,57.663,369.677,0v62.331    c0,13.362-16.703,27.382-45.828,38.463c-31.712,12.067-74.949,19.524-121.746,21.001c-4.141,0.13-7.391,3.592-7.26,7.732    c0.128,4.06,3.459,7.264,7.492,7.264c0.079,0,0.16-0.001,0.24-0.004c90.494-2.854,182.103-29.346,182.103-74.458V210.28    C512,188.886,490.209,169.485,450.639,155.653z M312.16,270.019c-108.928,0-184.838-31.484-184.838-59.741    s75.911-59.741,184.838-59.741c108.929,0,184.839,31.484,184.839,59.741S421.089,270.019,312.16,270.019z"/><path d="M80.37,338.107H28.009c-4.143,0-7.5,3.358-7.5,7.5c0,4.142,3.357,7.5,7.5,7.5H80.37c4.143,0,7.5-3.358,7.5-7.5    C87.87,341.465,84.513,338.107,80.37,338.107z"/><path d="M80.37,167.903H28.009c-4.143,0-7.5,3.358-7.5,7.5c0,4.142,3.357,7.5,7.5,7.5H80.37c4.143,0,7.5-3.358,7.5-7.5    C87.87,171.261,84.513,167.903,80.37,167.903z"/><path d="M80.37,295.556H7.5c-4.143,0-7.5,3.358-7.5,7.5c0,4.142,3.357,7.5,7.5,7.5H80.37c4.143,0,7.5-3.358,7.5-7.5    C87.87,298.914,84.513,295.556,80.37,295.556z"/><path d="M80.37,210.454H7.5c-4.143,0-7.5,3.358-7.5,7.5s3.357,7.5,7.5,7.5H80.37c4.143,0,7.5-3.358,7.5-7.5    S84.513,210.454,80.37,210.454z"/><path d="M80.37,253.005H7.5c-4.143,0-7.5,3.358-7.5,7.5s3.357,7.5,7.5,7.5H80.37c4.143,0,7.5-3.358,7.5-7.5    S84.513,253.005,80.37,253.005z"/><path d="M329.879,168.161c-4.103-0.125-7.595,3.137-7.716,7.278c-0.12,4.141,3.138,7.595,7.278,7.715    c79.612,2.323,115.476,18.92,115.476,25.116c0,1.521-6.279,9.14-35.291,15.938c-53.722,12.59-141.241,12.583-194.934,0    c-29.012-6.798-35.291-14.417-35.291-15.938c0-1.42,5.063-8.057,29.838-14.582c22.119-5.826,52.532-9.568,85.638-10.534    c4.141-0.121,7.398-3.575,7.278-7.715c-0.121-4.14-3.541-7.411-7.716-7.278c-32.574,0.95-130.039,7.62-130.039,40.109    c0,53.794,295.518,54.005,295.518,0C459.919,175.79,362.505,169.112,329.879,168.161z"/></g></defs><g fi:class="KUsePattern" opacity="0.13"><pattern id="pattern_L1_64" width="350" height="350" patternUnits="userSpaceOnUse"><use xlink:href="#L1_64" x="-350" y="-350"/><use xlink:href="#L1_64" x="0" y="-350"/><use xlink:href="#L1_64" x="350" y="-350"/><use xlink:href="#L1_64" x="-350" y="0"/><use xlink:href="#L1_64" x="0" y="0"/><use xlink:href="#L1_64" x="350" y="0"/><use xlink:href="#L1_64" x="-350" y="350"/><use xlink:href="#L1_64" x="0" y="350"/><use xlink:href="#L1_64" x="350" y="350"/></pattern><rect x="0" y="0" width="100%" height="100%" fill="url(#pattern_L1_64)"/></g><g fi:class="KUsePattern" opacity="0.13"><pattern id="pattern_L1_65" width="350" height="350" patternUnits="userSpaceOnUse"><use xlink:href="#L1_65" x="-350" y="-350"/><use xlink:href="#L1_65" x="0" y="-350"/><use xlink:href="#L1_65" x="350" y="-350"/><use xlink:href="#L1_65" x="-350" y="0"/><use xlink:href="#L1_65" x="0" y="0"/><use xlink:href="#L1_65" x="350" y="0"/><use xlink:href="#L1_65" x="-350" y="350"/><use xlink:href="#L1_65" x="0" y="350"/><use xlink:href="#L1_65" x="350" y="350"/></pattern><rect x="0" y="0" width="100%" height="100%" fill="url(#pattern_L1_65)"/></g><g fi:class="KUsePattern" opacity="0.13"><pattern id="pattern_L1_66" width="350" height="350" patternUnits="userSpaceOnUse"><use xlink:href="#L1_66" x="-350" y="-350"/><use xlink:href="#L1_66" x="0" y="-350"/><use xlink:href="#L1_66" x="350" y="-350"/><use xlink:href="#L1_66" x="-350" y="0"/><use xlink:href="#L1_66" x="0" y="0"/><use xlink:href="#L1_66" x="350" y="0"/><use xlink:href="#L1_66" x="-350" y="350"/><use xlink:href="#L1_66" x="0" y="350"/><use xlink:href="#L1_66" x="350" y="350"/></pattern><rect x="0" y="0" width="100%" height="100%" fill="url(#pattern_L1_66)"/></g><g fi:class="KUsePattern" opacity="0.13"><pattern id="pattern_L1_67" width="350" height="350" patternUnits="userSpaceOnUse"><use xlink:href="#L1_67" x="-350" y="-350"/><use xlink:href="#L1_67" x="0" y="-350"/><use xlink:href="#L1_67" x="350" y="-350"/><use xlink:href="#L1_67" x="-350" y="0"/><use xlink:href="#L1_67" x="0" y="0"/><use xlink:href="#L1_67" x="350" y="0"/><use xlink:href="#L1_67" x="-350" y="350"/><use xlink:href="#L1_67" x="0" y="350"/><use xlink:href="#L1_67" x="350" y="350"/></pattern><rect x="0" y="0" width="100%" height="100%" fill="url(#pattern_L1_67)"/></g><g fi:class="KUsePattern" opacity="0.13"><pattern id="pattern_L1_68" width="350" height="350" patternUnits="userSpaceOnUse"><use xlink:href="#L1_68" x="-350" y="-350"/><use xlink:href="#L1_68" x="0" y="-350"/><use xlink:href="#L1_68" x="350" y="-350"/><use xlink:href="#L1_68" x="-350" y="0"/><use xlink:href="#L1_68" x="0" y="0"/><use xlink:href="#L1_68" x="350" y="0"/><use xlink:href="#L1_68" x="-350" y="350"/><use xlink:href="#L1_68" x="0" y="350"/><use xlink:href="#L1_68" x="350" y="350"/></pattern><rect x="0" y="0" width="100%" height="100%" fill="url(#pattern_L1_68)"/></g></svg>